<svg fill="#002451" xmlns="http://www.w3.org/2000/svg" xmlns:xlink="http://www.w3.org/1999/xlink" version="1.1" x="0px" y="0px" viewBox="0 0 101 101" enable-background="new 0 0 101 101" xml:space="preserve"><g><g><path d="M67.907,61.725c-2.892,0-5.52,1.104-7.508,2.903L43.834,53.7c0.305-1.02,0.474-2.099,0.474-3.218    c0-1.118-0.168-2.195-0.473-3.213l16.56-10.915c1.989,1.8,4.618,2.905,7.512,2.905c6.19,0,11.21-5.021,11.21-11.213    s-5.02-11.213-11.21-11.213c-6.192,0-11.213,5.021-11.213,11.213c0,1.054,0.156,2.07,0.428,3.038L40.477,42.056    c-1.973-1.729-4.551-2.786-7.381-2.786c-6.191,0-11.213,5.021-11.213,11.213s5.022,11.213,11.213,11.213    c2.828,0,5.404-1.055,7.376-2.782l16.65,10.983c-0.272,0.969-0.429,1.987-0.429,3.043c0,6.19,5.021,11.211,11.213,11.211    c6.19,0,11.21-5.021,11.21-11.211C79.117,66.747,74.097,61.725,67.907,61.725z"></path></g></g></svg>